<?xml version="1.0" standalone="no"?>
<!DOCTYPE svg PUBLIC "-//W3C//DTD SVG 20010904//EN"
 "http://www.w3.org/TR/2001/REC-SVG-20010904/DTD/svg10.dtd">
<svg version="1.0" xmlns="http://www.w3.org/2000/svg"
 width="367.000000pt" height="367.000000pt" viewBox="0 0 367.000000 367.000000"
 preserveAspectRatio="xMidYMid meet">
<metadata>
Created by potrace 1.14, written by Peter Selinger 2001-2017
</metadata>
<g transform="translate(0.000000,367.000000) scale(0.100000,-0.100000)"
fill="#000000" stroke="none">
<path d="M1675 3328 c2 -62 4 -120 4 -129 1 -13 13 -16 69 -14 110 3 162 46
162 132 -1 85 -51 123 -161 123 l-77 0 3 -112z m131 43 c16 -1 34 -46 29 -72
-6 -30 -15 -37 -53 -45 -31 -6 -32 -6 -33 30 -3 95 -3 97 24 92 12 -3 27 -5
33 -5z"/>
<path d="M2009 3411 c-88 -47 -91 -177 -6 -230 129 -80 275 57 196 185 -34 55
-129 78 -190 45z m121 -73 c36 -39 13 -102 -41 -111 -57 -11 -96 59 -59 106
27 34 71 36 100 5z"/>
<path d="M1415 3393 c-30 -7 -33 -13 -40 -68 -4 -27 -8 -61 -10 -75 -14 -96
-16 -140 -8 -140 27 0 71 23 67 34 -12 31 68 56 97 30 15 -13 26 -15 50 -8 17
5 30 14 29 19 -3 15 -151 215 -159 214 -3 -1 -15 -3 -26 -6z m35 -102 c0 -5 7
-17 16 -26 19 -18 18 -20 -13 -29 -21 -7 -23 -4 -23 28 0 20 5 36 10 36 6 0
10 -4 10 -9z"/>
<path d="M2302 3347 c-20 -9 -32 -30 -38 -66 -4 -24 8 -41 52 -75 36 -27 41
-36 30 -45 -16 -14 -46 -4 -46 15 0 8 -15 20 -32 27 -30 12 -34 12 -40 -5 -22
-55 64 -124 136 -111 32 7 66 47 66 80 0 23 -51 83 -70 83 -11 0 -21 30 -15
40 7 12 35 1 35 -14 1 -16 70 -49 71 -33 7 56 -7 81 -57 102 -37 15 -61 16
-92 2z"/>
<path d="M1195 3318 c-11 -6 -21 -12 -23 -14 -2 -1 6 -20 17 -42 l20 -39 -27
-14 c-15 -7 -30 -15 -34 -17 -4 -2 -16 15 -27 37 -20 38 -22 40 -51 30 -16 -6
-30 -15 -30 -20 0 -9 97 -220 105 -227 2 -2 17 4 34 13 l31 16 -20 40 c-24 45
-21 53 18 67 28 9 30 8 51 -34 l21 -45 30 16 c16 9 30 17 30 20 0 17 -105 225
-114 225 -6 0 -20 -6 -31 -12z"/>
<path d="M938 3179 l-27 -20 34 -49 c19 -28 35 -51 35 -53 0 -2 -34 7 -75 20
-74 24 -75 24 -99 5 l-24 -19 68 -93 c91 -122 85 -118 115 -90 l25 23 -33 41
c-51 63 -53 68 -20 55 15 -6 36 -12 46 -14 10 -2 33 -9 51 -16 27 -10 37 -9
59 6 l27 17 -37 52 c-30 42 -86 114 -112 148 -4 4 -18 -2 -33 -13z"/>
<path d="M2580 3184 c-38 -24 -59 -58 -65 -103 -10 -84 50 -151 137 -151 29 0
88 27 88 41 0 18 -50 38 -81 33 -41 -7 -68 11 -74 49 -7 34 32 77 68 77 29 0
57 -29 57 -57 0 -20 38 -53 60 -53 14 0 12 80 -3 110 -31 61 -130 90 -187 54z"/>
<path d="M2808 2997 c-30 -34 -68 -77 -83 -95 l-28 -34 26 -23 25 -24 64 71
c35 39 68 76 73 82 37 41 37 43 7 65 l-29 20 -55 -62z"/>
<path d="M707 2992 c-10 -10 -17 -23 -17 -28 1 -5 38 -48 83 -96 l83 -87 29
25 29 25 -51 52 c-28 29 -67 69 -87 90 -41 42 -47 44 -69 19z"/>
<path d="M2944 2948 c-11 -13 -40 -39 -65 -60 -24 -20 -57 -48 -74 -62 l-29
-25 24 -25 23 -26 41 33 c62 50 68 53 56 23 -5 -14 -7 -26 -5 -26 2 0 0 -12
-6 -27 -22 -55 -21 -88 1 -108 21 -19 26 -17 90 45 3 3 31 27 62 53 58 48 58
49 40 72 -9 14 -21 25 -26 25 -4 0 -31 -19 -59 -42 -28 -24 -48 -37 -43 -31 4
7 9 23 11 35 3 13 10 45 16 72 11 45 10 49 -13 72 l-24 25 -20 -23z"/>
<path d="M583 2857 c-61 -75 -63 -80 -30 -106 16 -13 21 -11 45 19 l28 33 34
-79 c19 -43 33 -79 30 -80 -3 0 1 -8 9 -18 12 -15 16 -14 37 9 13 15 24 30 24
36 0 5 4 9 8 9 5 0 23 20 41 45 l33 45 -24 20 -23 20 -33 -37 c-17 -20 -33
-34 -35 -32 -1 2 -18 42 -36 89 -19 47 -37 89 -41 93 -3 4 -34 -26 -67 -66z"/>
<path d="M484 2685 c-16 -7 -37 -21 -46 -31 -20 -23 -45 -83 -42 -101 1 -7 2
-23 3 -35 2 -44 64 -97 120 -103 29 -3 84 17 105 38 41 41 56 107 36 163 -21
59 -114 96 -176 69z m111 -109 c14 -42 -11 -80 -56 -84 -67 -6 -97 61 -49 109
28 28 31 29 62 16 20 -8 37 -24 43 -41z"/>
<path d="M3075 2687 c-110 -36 -128 -179 -29 -243 25 -17 97 -25 109 -12 8 8
-28 68 -40 66 -46 -8 -78 44 -54 88 35 66 144 26 118 -44 -9 -23 2 -65 19 -76
17 -10 44 32 49 77 11 98 -80 174 -172 144z"/>
<path d="M1353 2652 c-42 -2 -53 -7 -54 -20 -2 -73 -1 -834 2 -837 2 -2 135
-5 294 -7 319 -4 341 -8 396 -70 71 -79 53 -235 -34 -302 -112 -85 -295 -64
-391 45 l-36 41 -147 -82 c-82 -45 -150 -84 -152 -86 -6 -6 30 -56 78 -108
246 -263 678 -277 925 -31 111 109 165 232 171 383 5 154 -44 289 -138 383
-114 113 -268 166 -507 175 -36 1 -67 2 -70 3 -3 1 -5 37 -5 81 l-1 80 56 1
c30 0 178 0 328 0 149 0 273 3 273 7 1 4 2 82 3 175 l2 167 -46 1 c-235 2
-906 3 -947 1z m117 -212 c158 -138 145 -119 147 -219 l1 -89 -36 -34 c-20
-18 -68 -60 -107 -93 -38 -33 -72 -62 -75 -65 -35 -35 -35 -39 -35 280 0 272
2 307 15 297 8 -7 49 -41 90 -77z m865 -900 c7 -12 -32 -136 -59 -187 -50 -92
-186 -209 -266 -229 -8 -2 -38 -10 -66 -18 -29 -8 -65 -16 -80 -18 l-29 -3 0
107 -1 106 39 6 c95 16 193 99 213 182 15 63 14 63 134 63 61 -1 112 -4 115
-9z"/>
<path d="M3173 2410 c-123 -56 -82 -256 55 -265 110 -7 177 113 118 213 -37
65 -102 84 -173 52z m109 -77 c26 -30 28 -61 6 -88 -39 -50 -120 -22 -120 42
0 52 80 85 114 46z"/>
<path d="M358 2402 c-53 -27 -81 -77 -75 -136 4 -41 11 -55 41 -83 19 -18 47
-34 61 -34 14 -1 31 -2 38 -3 68 -10 143 91 123 168 -6 25 -52 86 -65 86 -4 0
-12 -16 -18 -35 -9 -27 -8 -37 3 -46 20 -16 17 -63 -4 -82 -25 -23 -68 -21
-92 3 -22 22 -26 64 -7 80 6 5 22 18 34 28 28 22 35 64 11 67 -9 2 -32 -4 -50
-13z"/>
<path d="M267 2002 c-3 -6 -3 -42 2 -95 0 -9 16 -26 34 -37 17 -11 25 -20 17
-20 -8 0 -33 11 -55 24 -43 27 -59 24 -121 -17 l-34 -24 42 -28 c49 -33 73
-34 120 -5 37 23 48 25 48 9 0 -5 -4 -8 -9 -5 -19 12 -43 -34 -46 -88 -1 -31
2 -56 6 -56 5 0 29 10 54 22 48 23 68 60 58 109 -4 22 -1 24 39 26 l43 3 -32
-21 c-18 -12 -33 -28 -34 -37 0 -10 -2 -36 -4 -59 -1 -24 2 -43 7 -43 18 0 93
43 102 59 6 9 10 34 10 56 l1 39 50 2 c68 3 65 2 65 19 0 9 -10 15 -27 16 -94
4 -88 1 -89 39 -1 19 -2 43 -3 52 -1 19 -95 73 -110 63 -14 -8 -2 -107 15
-127 9 -9 21 -15 25 -12 5 3 9 0 9 -6 0 -7 -13 -10 -32 -8 -30 3 -33 6 -34 38
0 44 -11 77 -27 83 -7 3 -29 12 -49 21 -20 9 -39 12 -41 8z m84 -64 c6 -10 9
-29 7 -40 -3 -19 -7 -16 -30 20 -16 23 -28 43 -28 46 0 12 42 -9 51 -26z m114
16 c18 -12 25 -25 25 -48 -1 -30 -1 -30 -16 -11 -21 27 -46 75 -39 75 3 0 17
-7 30 -16z m-215 -102 c22 -18 22 -18 -34 -18 -55 1 -56 1 -34 18 29 22 41 22
68 0z m85 -89 c-46 -71 -45 -71 -45 -36 0 22 7 37 22 47 34 24 42 19 23 -11z
m130 0 c-46 -72 -45 -71 -45 -32 0 27 5 39 23 47 36 17 40 14 22 -15z"/>
<path d="M3187 1991 c-53 -25 -61 -35 -63 -84 -2 -23 -3 -45 -3 -49 -1 -3 -25
-6 -53 -5 -47 2 -53 0 -53 -18 0 -17 7 -19 54 -20 l55 0 1 -49 c2 -52 27 -86
64 -86 9 0 23 -6 29 -12 18 -18 30 4 27 51 -3 45 -21 81 -40 81 -8 0 -15 4
-15 9 0 5 15 8 33 7 29 -1 32 -4 33 -36 2 -61 13 -79 61 -100 55 -24 62 -18
57 46 -3 53 -9 62 -41 75 -14 5 -24 12 -21 14 7 7 68 -16 68 -25 0 -19 48 -14
92 9 27 14 48 29 48 33 0 4 -19 20 -42 36 -46 31 -73 31 -120 -2 -12 -9 -29
-16 -38 -16 -8 0 0 9 18 20 17 11 33 28 33 37 5 69 3 103 -4 103 -4 0 -30 -11
-57 -25 -41 -21 -50 -30 -51 -53 -4 -82 -1 -76 -44 -79 -35 -2 -37 -1 -20 9
11 6 26 18 34 26 16 16 21 114 6 118 -5 1 -27 -6 -48 -15z m18 -91 c-9 -10
-25 -20 -35 -23 -15 -4 -13 3 13 44 30 45 32 46 35 23 2 -14 -4 -34 -13 -44z
m145 37 c0 -28 -5 -36 -35 -50 l-35 -17 33 50 c17 27 33 50 35 50 1 0 2 -15 2
-33z m120 -107 c0 -3 -9 -11 -21 -18 -17 -11 -27 -11 -50 -2 -42 18 -36 25 21
25 27 0 50 -2 50 -5z m-265 -128 c-2 -3 -16 3 -30 12 -18 12 -25 25 -25 49 l0
32 30 -45 c16 -24 27 -46 25 -48z m130 0 c-2 -3 -16 3 -30 12 -18 12 -25 25
-25 49 l0 32 30 -45 c16 -24 27 -46 25 -48z"/>
<path d="M395 1512 c-105 -24 -133 -185 -43 -244 33 -21 85 -32 93 -18 11 17
-18 69 -40 72 -11 2 -26 16 -34 32 -12 25 -11 31 6 55 53 70 158 9 110 -64
-10 -16 -11 -27 -2 -53 l11 -33 26 21 c49 38 60 120 24 175 -31 47 -92 71
-151 57z"/>
<path d="M3174 1504 c-96 -33 -128 -162 -59 -234 45 -47 125 -56 175 -20 56
40 80 143 45 196 -35 54 -103 78 -161 58z m69 -75 c41 -22 50 -50 30 -91 -16
-33 -46 -43 -82 -28 -36 14 -51 47 -39 80 16 46 50 60 91 39z"/>
<path d="M467 1224 c-21 -14 -42 -37 -48 -50 -11 -30 -12 -98 -1 -108 4 -4 7
-11 7 -14 0 -4 7 -16 15 -28 82 -114 271 -38 246 99 -19 108 -133 160 -219
101z m121 -61 c35 -30 38 -68 8 -97 -31 -32 -69 -33 -96 -4 -35 38 -21 92 30
111 26 9 37 7 58 -10z"/>
<path d="M3056 1230 c-79 -24 -118 -116 -81 -193 48 -98 186 -100 241 -3 29
52 20 121 -22 163 -18 18 -47 -47 -35 -79 9 -25 0 -61 -20 -73 -41 -26 -109
12 -109 60 0 25 29 55 53 55 15 0 61 59 53 67 -9 9 -54 10 -80 3z"/>
<path d="M703 1031 l-22 -18 25 -34 c27 -37 23 -43 -36 -53 -76 -12 -131 -24
-136 -29 -3 -3 23 -41 58 -85 l64 -79 26 20 27 20 -30 39 c-22 27 -27 39 -17
42 15 5 172 36 181 36 15 0 6 20 -25 57 -18 22 -44 54 -57 71 -28 37 -29 37
-58 13z"/>
<path d="M2888 1015 c-10 -13 -18 -27 -18 -30 0 -4 21 -27 48 -51 26 -24 40
-42 32 -39 -8 2 -46 6 -85 9 -66 4 -71 3 -88 -21 -17 -21 -17 -26 -4 -36 8 -7
39 -32 67 -57 29 -25 66 -57 83 -72 18 -15 34 -24 37 -20 3 4 13 15 23 24 17
17 16 19 -25 58 -24 22 -46 40 -50 40 -5 0 -8 5 -8 11 0 5 3 8 8 6 4 -3 40 -8
81 -11 61 -6 76 -4 92 10 32 28 32 28 -66 109 -33 28 -64 55 -70 60 -30 32
-40 33 -57 10z"/>
<path d="M778 795 c-86 -90 -87 -90 -68 -112 10 -13 24 -23 30 -23 7 0 50 39
96 86 70 73 82 89 74 105 -25 45 -42 38 -132 -56z"/>
<path d="M2702 817 l-22 -24 32 -38 c18 -21 58 -64 88 -96 l55 -59 26 24 27
23 -85 96 c-47 54 -89 97 -92 97 -4 0 -17 -10 -29 -23z"/>
<path d="M865 713 c-38 -53 -71 -100 -73 -104 -2 -4 9 -16 24 -25 30 -20 23
-24 89 60 l23 29 0 -69 c0 -107 0 -110 26 -122 23 -10 28 -7 83 69 32 44 66
90 76 101 17 21 17 22 -10 44 l-28 23 -20 -27 c-11 -15 -30 -38 -42 -52 l-22
-25 2 79 c2 72 1 80 -22 97 -13 10 -26 19 -30 18 -3 0 -37 -43 -76 -96z"/>
<path d="M2575 721 c-71 -36 -97 -111 -63 -180 62 -126 242 -93 256 47 2 31 0
52 -7 56 -17 11 -71 -32 -64 -50 3 -8 -4 -25 -17 -39 -27 -28 -67 -26 -92 5
-41 51 -6 114 57 104 26 -4 42 0 61 15 l25 20 -24 16 c-41 26 -87 28 -132 6z"/>
<path d="M1137 643 c-3 -10 -26 -61 -51 -113 -48 -99 -48 -110 -1 -124 17 -5
25 2 43 39 l21 44 31 -17 c34 -19 35 -26 15 -62 -21 -36 -18 -48 13 -64 l29
-15 54 111 c30 61 55 114 57 119 2 4 -11 15 -27 24 -31 15 -31 15 -51 -17 -11
-18 -21 -37 -23 -42 -4 -13 -67 13 -67 28 1 6 7 22 15 36 20 35 18 45 -10 58
-35 16 -42 15 -48 -5z"/>
<path d="M2311 579 c-82 -18 -110 -58 -87 -126 9 -27 36 -37 101 -38 38 0 50
-4 50 -15 0 -11 -11 -15 -40 -16 -46 -1 -85 -12 -85 -24 0 -17 54 -50 82 -50
97 0 159 100 96 157 -15 13 -34 17 -79 15 -45 -2 -59 1 -59 12 0 17 31 30 40
16 8 -13 70 10 70 26 0 11 -25 36 -45 46 -5 3 -25 1 -44 -3z"/>
<path d="M1434 518 c-21 -24 -124 -163 -138 -187 -18 -28 51 -43 74 -16 7 9
21 13 34 9 12 -3 31 -6 42 -8 10 -2 21 -11 23 -22 5 -29 17 -39 50 -42 30 -2
31 -1 26 30 -18 130 -28 205 -27 220 0 13 -41 38 -63 38 -1 0 -10 -10 -21 -22z
m31 -113 c0 -26 -4 -35 -17 -35 -26 0 -31 17 -12 45 22 34 29 32 29 -10z"/>
<path d="M2050 512 c-75 -23 -120 -72 -120 -130 0 -128 146 -188 245 -100 19
16 33 34 30 38 -3 5 -1 11 4 14 14 9 4 93 -15 122 -27 40 -102 70 -144 56z
m70 -87 c42 -38 15 -115 -40 -115 -75 0 -101 104 -32 128 35 12 47 10 72 -13z"/>
<path d="M1677 483 c-2 -5 -5 -63 -6 -130 -3 -140 -13 -127 97 -125 63 1 106
24 127 68 31 66 10 140 -47 170 -33 17 -164 30 -171 17z m142 -84 c37 -40 0
-113 -52 -105 -19 3 -22 10 -23 57 0 30 1 57 3 62 8 15 53 6 72 -14z"/>
</g>
</svg>
